<svg width="14" height="14" viewBox="0 0 14 14" fill="none" xmlns="http://www.w3.org/2000/svg">
<path fill-rule="evenodd" clip-rule="evenodd" d="M6.08644 0.671077C6.43256 -0.141373 7.58493 -0.139166 7.92793 0.674605L9.09578 3.44536C9.23629 3.77873 9.54591 4.01021 9.90541 4.05068L12.8555 4.38278C13.7019 4.47805 14.0493 5.52013 13.4295 6.10425L11.1533 8.24935C10.9023 8.48595 10.7909 8.83524 10.8586 9.17349L11.4772 12.2617C11.6483 13.1163 10.7205 13.7656 9.97623 13.312L7.50504 11.8059C7.18668 11.6119 6.78681 11.6111 6.46766 11.8038L3.99034 13.2999C3.24438 13.7504 2.31924 13.0976 2.49361 12.2438L3.12402 9.15699C3.19304 8.81906 3.08304 8.46941 2.83297 8.23187L0.565011 6.07746C-0.0525423 5.49083 0.299188 4.45002 1.146 4.35826L4.09616 4.03856C4.45594 3.99957 4.76658 3.76925 4.90842 3.43631L6.08644 0.671077Z" fill="black"/>
</svg>
